<mxfile host="Electron" modified="2023-11-13T09:31:43.042Z" agent="Mozilla/5.0 (Windows NT 10.0; Win64; x64) AppleWebKit/537.36 (KHTML, like Gecko) draw.io/21.2.8 Chrome/112.0.5615.165 Electron/24.2.0 Safari/537.36" etag="LweQ2I1UZeYolzA3I7Cm" version="21.2.8" type="device">
  <diagram name="第 1 页" id="v5PZZOayeSAOYC91dw5K">
    <mxGraphModel dx="780" dy="504" grid="1" gridSize="10" guides="1" tooltips="1" connect="1" arrows="1" fold="1" page="1" pageScale="1" pageWidth="827" pageHeight="1169" math="0" shadow="0">
      <root>
        <mxCell id="0" />
        <mxCell id="1" parent="0" />
        <mxCell id="_pU5s7kkQX8Qgu3Vk2nb-5" value="" style="group" vertex="1" connectable="0" parent="1">
          <mxGeometry x="400" y="140" width="134" height="230" as="geometry" />
        </mxCell>
        <mxCell id="_pU5s7kkQX8Qgu3Vk2nb-1" value="POSTGRES&lt;br&gt;DOCKER" style="shape=cylinder3;whiteSpace=wrap;html=1;boundedLbl=1;backgroundOutline=1;size=15;" vertex="1" parent="_pU5s7kkQX8Qgu3Vk2nb-5">
          <mxGeometry x="20" y="140" width="100" height="90" as="geometry" />
        </mxCell>
        <mxCell id="_pU5s7kkQX8Qgu3Vk2nb-2" value="AIRFLOW DOCKER" style="shape=cube;whiteSpace=wrap;html=1;boundedLbl=1;backgroundOutline=1;darkOpacity=0.05;darkOpacity2=0.1;" vertex="1" parent="_pU5s7kkQX8Qgu3Vk2nb-5">
          <mxGeometry width="120" height="80" as="geometry" />
        </mxCell>
        <mxCell id="_pU5s7kkQX8Qgu3Vk2nb-3" value="" style="shape=flexArrow;endArrow=classic;html=1;rounded=0;entryX=0.5;entryY=0;entryDx=0;entryDy=0;entryPerimeter=0;exitX=0;exitY=0;exitDx=70;exitDy=80;exitPerimeter=0;" edge="1" parent="_pU5s7kkQX8Qgu3Vk2nb-5" source="_pU5s7kkQX8Qgu3Vk2nb-2" target="_pU5s7kkQX8Qgu3Vk2nb-1">
          <mxGeometry width="50" height="50" relative="1" as="geometry">
            <mxPoint x="40" y="130" as="sourcePoint" />
            <mxPoint x="90" y="80" as="targetPoint" />
          </mxGeometry>
        </mxCell>
        <mxCell id="_pU5s7kkQX8Qgu3Vk2nb-4" value="底層紀錄&lt;br&gt;依賴項" style="text;html=1;strokeColor=none;fillColor=none;align=center;verticalAlign=middle;whiteSpace=wrap;rounded=0;" vertex="1" parent="_pU5s7kkQX8Qgu3Vk2nb-5">
          <mxGeometry x="74" y="90" width="60" height="30" as="geometry" />
        </mxCell>
        <mxCell id="_pU5s7kkQX8Qgu3Vk2nb-9" style="edgeStyle=orthogonalEdgeStyle;rounded=0;orthogonalLoop=1;jettySize=auto;html=1;entryX=-0.044;entryY=0.513;entryDx=0;entryDy=0;entryPerimeter=0;" edge="1" parent="1" source="_pU5s7kkQX8Qgu3Vk2nb-6" target="_pU5s7kkQX8Qgu3Vk2nb-2">
          <mxGeometry relative="1" as="geometry" />
        </mxCell>
        <mxCell id="_pU5s7kkQX8Qgu3Vk2nb-6" value="網頁介面" style="shape=internalStorage;whiteSpace=wrap;html=1;backgroundOutline=1;" vertex="1" parent="1">
          <mxGeometry x="90" y="230" width="230" height="170" as="geometry" />
        </mxCell>
        <mxCell id="_pU5s7kkQX8Qgu3Vk2nb-7" style="edgeStyle=orthogonalEdgeStyle;rounded=0;orthogonalLoop=1;jettySize=auto;html=1;entryX=0.5;entryY=0;entryDx=0;entryDy=0;" edge="1" parent="1" source="_pU5s7kkQX8Qgu3Vk2nb-2" target="_pU5s7kkQX8Qgu3Vk2nb-6">
          <mxGeometry relative="1" as="geometry" />
        </mxCell>
        <mxCell id="_pU5s7kkQX8Qgu3Vk2nb-18" style="edgeStyle=orthogonalEdgeStyle;rounded=0;orthogonalLoop=1;jettySize=auto;html=1;" edge="1" parent="1" source="_pU5s7kkQX8Qgu3Vk2nb-8" target="_pU5s7kkQX8Qgu3Vk2nb-2">
          <mxGeometry relative="1" as="geometry" />
        </mxCell>
        <mxCell id="_pU5s7kkQX8Qgu3Vk2nb-8" value="目標POSTGRES" style="shape=cylinder3;whiteSpace=wrap;html=1;boundedLbl=1;backgroundOutline=1;size=15;" vertex="1" parent="1">
          <mxGeometry x="670" y="135" width="110" height="90" as="geometry" />
        </mxCell>
        <mxCell id="_pU5s7kkQX8Qgu3Vk2nb-10" value="操作服務" style="text;html=1;strokeColor=none;fillColor=none;align=center;verticalAlign=middle;whiteSpace=wrap;rounded=0;" vertex="1" parent="1">
          <mxGeometry x="260" y="150" width="60" height="30" as="geometry" />
        </mxCell>
        <mxCell id="_pU5s7kkQX8Qgu3Vk2nb-11" value="請求工作" style="text;html=1;strokeColor=none;fillColor=none;align=center;verticalAlign=middle;whiteSpace=wrap;rounded=0;" vertex="1" parent="1">
          <mxGeometry x="340" y="320" width="60" height="30" as="geometry" />
        </mxCell>
        <mxCell id="_pU5s7kkQX8Qgu3Vk2nb-12" style="edgeStyle=orthogonalEdgeStyle;rounded=0;orthogonalLoop=1;jettySize=auto;html=1;entryX=0;entryY=0.5;entryDx=0;entryDy=0;entryPerimeter=0;" edge="1" parent="1" source="_pU5s7kkQX8Qgu3Vk2nb-2" target="_pU5s7kkQX8Qgu3Vk2nb-8">
          <mxGeometry relative="1" as="geometry" />
        </mxCell>
        <mxCell id="_pU5s7kkQX8Qgu3Vk2nb-15" style="edgeStyle=orthogonalEdgeStyle;rounded=0;orthogonalLoop=1;jettySize=auto;html=1;" edge="1" parent="1" source="_pU5s7kkQX8Qgu3Vk2nb-13" target="_pU5s7kkQX8Qgu3Vk2nb-2">
          <mxGeometry relative="1" as="geometry" />
        </mxCell>
        <mxCell id="_pU5s7kkQX8Qgu3Vk2nb-13" value="GCP BUCKET" style="rounded=1;whiteSpace=wrap;html=1;" vertex="1" parent="1">
          <mxGeometry x="660" y="30" width="120" height="60" as="geometry" />
        </mxCell>
        <mxCell id="_pU5s7kkQX8Qgu3Vk2nb-16" value="取得資料" style="text;html=1;strokeColor=none;fillColor=none;align=center;verticalAlign=middle;whiteSpace=wrap;rounded=0;" vertex="1" parent="1">
          <mxGeometry x="534" y="30" width="60" height="30" as="geometry" />
        </mxCell>
        <mxCell id="_pU5s7kkQX8Qgu3Vk2nb-17" value="上傳JSON" style="text;html=1;strokeColor=none;fillColor=none;align=center;verticalAlign=middle;whiteSpace=wrap;rounded=0;" vertex="1" parent="1">
          <mxGeometry x="570" y="140" width="60" height="30" as="geometry" />
        </mxCell>
        <mxCell id="_pU5s7kkQX8Qgu3Vk2nb-19" value="DBT作業" style="text;html=1;strokeColor=none;fillColor=none;align=center;verticalAlign=middle;whiteSpace=wrap;rounded=0;" vertex="1" parent="1">
          <mxGeometry x="570" y="190" width="60" height="30" as="geometry" />
        </mxCell>
        <mxCell id="_pU5s7kkQX8Qgu3Vk2nb-22" value="" style="group;fontSize=17;" vertex="1" connectable="0" parent="1">
          <mxGeometry x="60" y="420" width="660" height="480" as="geometry" />
        </mxCell>
        <mxCell id="_pU5s7kkQX8Qgu3Vk2nb-20" value="" style="rounded=0;whiteSpace=wrap;html=1;" vertex="1" parent="_pU5s7kkQX8Qgu3Vk2nb-22">
          <mxGeometry y="30" width="660" height="390" as="geometry" />
        </mxCell>
        <mxCell id="_pU5s7kkQX8Qgu3Vk2nb-21" value="&lt;font style=&quot;font-size: 20px;&quot;&gt;資料傳遞機制&lt;/font&gt;" style="text;html=1;strokeColor=none;fillColor=none;align=center;verticalAlign=middle;whiteSpace=wrap;rounded=0;" vertex="1" parent="_pU5s7kkQX8Qgu3Vk2nb-22">
          <mxGeometry x="270" width="150" height="30" as="geometry" />
        </mxCell>
        <mxCell id="_pU5s7kkQX8Qgu3Vk2nb-23" value="目標POSTGRES" style="shape=cylinder3;whiteSpace=wrap;html=1;boundedLbl=1;backgroundOutline=1;size=15;" vertex="1" parent="_pU5s7kkQX8Qgu3Vk2nb-22">
          <mxGeometry x="520" y="305" width="110" height="90" as="geometry" />
        </mxCell>
        <mxCell id="_pU5s7kkQX8Qgu3Vk2nb-24" value="&lt;div&gt;&lt;span style=&quot;background-color: initial;&quot;&gt;gcs_to_postgres_dag&lt;/span&gt;&lt;br&gt;&lt;/div&gt;" style="rounded=0;whiteSpace=wrap;html=1;" vertex="1" parent="_pU5s7kkQX8Qgu3Vk2nb-22">
          <mxGeometry x="30" y="70" width="150" height="40" as="geometry" />
        </mxCell>
        <mxCell id="_pU5s7kkQX8Qgu3Vk2nb-25" value="&lt;div&gt;dbt&lt;br&gt;&lt;/div&gt;" style="rounded=0;whiteSpace=wrap;html=1;" vertex="1" parent="_pU5s7kkQX8Qgu3Vk2nb-22">
          <mxGeometry x="30" y="250" width="150" height="40" as="geometry" />
        </mxCell>
        <mxCell id="_pU5s7kkQX8Qgu3Vk2nb-26" value="&lt;div&gt;gcs_to_postgres_dag_update&lt;br&gt;&lt;/div&gt;" style="rounded=0;whiteSpace=wrap;html=1;" vertex="1" parent="_pU5s7kkQX8Qgu3Vk2nb-22">
          <mxGeometry x="15" y="160" width="200" height="40" as="geometry" />
        </mxCell>
        <mxCell id="_pU5s7kkQX8Qgu3Vk2nb-27" value="&lt;div&gt;dbt_update&lt;br&gt;&lt;/div&gt;" style="rounded=0;whiteSpace=wrap;html=1;" vertex="1" parent="_pU5s7kkQX8Qgu3Vk2nb-22">
          <mxGeometry x="30" y="330" width="150" height="40" as="geometry" />
        </mxCell>
        <mxCell id="_pU5s7kkQX8Qgu3Vk2nb-28" value="GCP BUCKET" style="rounded=1;whiteSpace=wrap;html=1;" vertex="1" parent="_pU5s7kkQX8Qgu3Vk2nb-22">
          <mxGeometry x="500" y="60" width="120" height="60" as="geometry" />
        </mxCell>
        <mxCell id="_pU5s7kkQX8Qgu3Vk2nb-34" value="執行DBT作業，建立完整資料" style="text;html=1;strokeColor=none;fillColor=none;align=center;verticalAlign=middle;whiteSpace=wrap;rounded=0;" vertex="1" parent="_pU5s7kkQX8Qgu3Vk2nb-22">
          <mxGeometry x="15" y="290" width="190" height="30" as="geometry" />
        </mxCell>
        <mxCell id="_pU5s7kkQX8Qgu3Vk2nb-38" value="" style="group" vertex="1" connectable="0" parent="_pU5s7kkQX8Qgu3Vk2nb-22">
          <mxGeometry x="105" y="130" width="345" height="220" as="geometry" />
        </mxCell>
        <mxCell id="_pU5s7kkQX8Qgu3Vk2nb-31" style="edgeStyle=orthogonalEdgeStyle;rounded=0;orthogonalLoop=1;jettySize=auto;html=1;entryX=0;entryY=0.5;entryDx=0;entryDy=0;entryPerimeter=0;" edge="1" parent="_pU5s7kkQX8Qgu3Vk2nb-38" source="_pU5s7kkQX8Qgu3Vk2nb-24" target="_pU5s7kkQX8Qgu3Vk2nb-23">
          <mxGeometry relative="1" as="geometry">
            <Array as="points">
              <mxPoint />
              <mxPoint x="235" />
              <mxPoint x="235" y="220" />
            </Array>
          </mxGeometry>
        </mxCell>
        <mxCell id="_pU5s7kkQX8Qgu3Vk2nb-33" style="edgeStyle=orthogonalEdgeStyle;rounded=0;orthogonalLoop=1;jettySize=auto;html=1;" edge="1" parent="_pU5s7kkQX8Qgu3Vk2nb-38" source="_pU5s7kkQX8Qgu3Vk2nb-25" target="_pU5s7kkQX8Qgu3Vk2nb-23">
          <mxGeometry relative="1" as="geometry">
            <Array as="points">
              <mxPoint x="235" y="140" />
              <mxPoint x="235" y="220" />
            </Array>
          </mxGeometry>
        </mxCell>
        <mxCell id="_pU5s7kkQX8Qgu3Vk2nb-36" style="edgeStyle=orthogonalEdgeStyle;rounded=0;orthogonalLoop=1;jettySize=auto;html=1;" edge="1" parent="_pU5s7kkQX8Qgu3Vk2nb-38" source="_pU5s7kkQX8Qgu3Vk2nb-26" target="_pU5s7kkQX8Qgu3Vk2nb-23">
          <mxGeometry relative="1" as="geometry">
            <Array as="points">
              <mxPoint x="10" y="100" />
              <mxPoint x="235" y="100" />
              <mxPoint x="235" y="220" />
            </Array>
          </mxGeometry>
        </mxCell>
        <mxCell id="_pU5s7kkQX8Qgu3Vk2nb-37" style="edgeStyle=orthogonalEdgeStyle;rounded=0;orthogonalLoop=1;jettySize=auto;html=1;" edge="1" parent="_pU5s7kkQX8Qgu3Vk2nb-38" source="_pU5s7kkQX8Qgu3Vk2nb-27" target="_pU5s7kkQX8Qgu3Vk2nb-23">
          <mxGeometry relative="1" as="geometry" />
        </mxCell>
        <mxCell id="_pU5s7kkQX8Qgu3Vk2nb-32" value="寫入資料庫" style="text;html=1;strokeColor=none;fillColor=none;align=center;verticalAlign=middle;whiteSpace=wrap;rounded=0;" vertex="1" parent="_pU5s7kkQX8Qgu3Vk2nb-38">
          <mxGeometry x="265" y="175" width="80" height="30" as="geometry" />
        </mxCell>
        <mxCell id="_pU5s7kkQX8Qgu3Vk2nb-39" value="" style="group" vertex="1" connectable="0" parent="_pU5s7kkQX8Qgu3Vk2nb-22">
          <mxGeometry x="310" y="60" width="165" height="120" as="geometry" />
        </mxCell>
        <mxCell id="_pU5s7kkQX8Qgu3Vk2nb-29" style="edgeStyle=orthogonalEdgeStyle;rounded=0;orthogonalLoop=1;jettySize=auto;html=1;entryX=1;entryY=0.5;entryDx=0;entryDy=0;" edge="1" parent="_pU5s7kkQX8Qgu3Vk2nb-39" source="_pU5s7kkQX8Qgu3Vk2nb-28" target="_pU5s7kkQX8Qgu3Vk2nb-24">
          <mxGeometry relative="1" as="geometry" />
        </mxCell>
        <mxCell id="_pU5s7kkQX8Qgu3Vk2nb-35" style="edgeStyle=orthogonalEdgeStyle;rounded=0;orthogonalLoop=1;jettySize=auto;html=1;entryX=1;entryY=0.5;entryDx=0;entryDy=0;" edge="1" parent="_pU5s7kkQX8Qgu3Vk2nb-39" source="_pU5s7kkQX8Qgu3Vk2nb-28" target="_pU5s7kkQX8Qgu3Vk2nb-26">
          <mxGeometry relative="1" as="geometry">
            <Array as="points">
              <mxPoint y="30" />
              <mxPoint y="120" />
            </Array>
          </mxGeometry>
        </mxCell>
        <mxCell id="_pU5s7kkQX8Qgu3Vk2nb-30" value="傳遞資料(json)" style="text;html=1;strokeColor=none;fillColor=none;align=center;verticalAlign=middle;whiteSpace=wrap;rounded=0;" vertex="1" parent="_pU5s7kkQX8Qgu3Vk2nb-39">
          <mxGeometry x="80" width="85" height="30" as="geometry" />
        </mxCell>
        <mxCell id="_pU5s7kkQX8Qgu3Vk2nb-40" value="執行DBT作業，更新資料(根據目標OMOP表)" style="text;html=1;strokeColor=none;fillColor=none;align=center;verticalAlign=middle;whiteSpace=wrap;rounded=0;" vertex="1" parent="_pU5s7kkQX8Qgu3Vk2nb-22">
          <mxGeometry x="10" y="380" width="250" height="30" as="geometry" />
        </mxCell>
        <mxCell id="_pU5s7kkQX8Qgu3Vk2nb-43" value="寫入更新用資料" style="text;html=1;strokeColor=none;fillColor=none;align=center;verticalAlign=middle;whiteSpace=wrap;rounded=0;" vertex="1" parent="_pU5s7kkQX8Qgu3Vk2nb-22">
          <mxGeometry x="10" y="200" width="115" height="30" as="geometry" />
        </mxCell>
        <mxCell id="_pU5s7kkQX8Qgu3Vk2nb-44" value="寫入完整資料" style="text;html=1;strokeColor=none;fillColor=none;align=center;verticalAlign=middle;whiteSpace=wrap;rounded=0;" vertex="1" parent="_pU5s7kkQX8Qgu3Vk2nb-22">
          <mxGeometry x="10" y="105" width="115" height="30" as="geometry" />
        </mxCell>
        <mxCell id="_pU5s7kkQX8Qgu3Vk2nb-45" value="" style="rounded=0;whiteSpace=wrap;html=1;" vertex="1" parent="1">
          <mxGeometry x="60" y="950" width="640" height="460" as="geometry" />
        </mxCell>
        <mxCell id="_pU5s7kkQX8Qgu3Vk2nb-46" value="&lt;font style=&quot;font-size: 17px;&quot;&gt;執行順序與作業&lt;/font&gt;" style="text;html=1;strokeColor=none;fillColor=none;align=center;verticalAlign=middle;whiteSpace=wrap;rounded=0;" vertex="1" parent="1">
          <mxGeometry x="308" y="920" width="182" height="30" as="geometry" />
        </mxCell>
        <mxCell id="_pU5s7kkQX8Qgu3Vk2nb-70" value="" style="group" vertex="1" connectable="0" parent="1">
          <mxGeometry x="165" y="550" width="345" height="220" as="geometry" />
        </mxCell>
        <mxCell id="_pU5s7kkQX8Qgu3Vk2nb-71" style="edgeStyle=orthogonalEdgeStyle;rounded=0;orthogonalLoop=1;jettySize=auto;html=1;entryX=0;entryY=0.5;entryDx=0;entryDy=0;entryPerimeter=0;" edge="1" parent="_pU5s7kkQX8Qgu3Vk2nb-70">
          <mxGeometry relative="1" as="geometry">
            <Array as="points">
              <mxPoint />
              <mxPoint x="235" />
              <mxPoint x="235" y="220" />
            </Array>
          </mxGeometry>
        </mxCell>
        <mxCell id="_pU5s7kkQX8Qgu3Vk2nb-72" style="edgeStyle=orthogonalEdgeStyle;rounded=0;orthogonalLoop=1;jettySize=auto;html=1;" edge="1" parent="_pU5s7kkQX8Qgu3Vk2nb-70">
          <mxGeometry relative="1" as="geometry">
            <Array as="points">
              <mxPoint x="235" y="140" />
              <mxPoint x="235" y="220" />
            </Array>
          </mxGeometry>
        </mxCell>
        <mxCell id="_pU5s7kkQX8Qgu3Vk2nb-73" style="edgeStyle=orthogonalEdgeStyle;rounded=0;orthogonalLoop=1;jettySize=auto;html=1;" edge="1" parent="_pU5s7kkQX8Qgu3Vk2nb-70">
          <mxGeometry relative="1" as="geometry">
            <Array as="points">
              <mxPoint x="10" y="100" />
              <mxPoint x="235" y="100" />
              <mxPoint x="235" y="220" />
            </Array>
          </mxGeometry>
        </mxCell>
        <mxCell id="_pU5s7kkQX8Qgu3Vk2nb-74" style="edgeStyle=orthogonalEdgeStyle;rounded=0;orthogonalLoop=1;jettySize=auto;html=1;" edge="1" parent="_pU5s7kkQX8Qgu3Vk2nb-70">
          <mxGeometry relative="1" as="geometry" />
        </mxCell>
        <mxCell id="_pU5s7kkQX8Qgu3Vk2nb-75" value="寫入資料庫" style="text;html=1;strokeColor=none;fillColor=none;align=center;verticalAlign=middle;whiteSpace=wrap;rounded=0;" vertex="1" parent="_pU5s7kkQX8Qgu3Vk2nb-70">
          <mxGeometry x="265" y="175" width="80" height="30" as="geometry" />
        </mxCell>
        <mxCell id="_pU5s7kkQX8Qgu3Vk2nb-111" value="" style="rounded=1;whiteSpace=wrap;html=1;" vertex="1" parent="1">
          <mxGeometry x="100" y="1220" width="268" height="160" as="geometry" />
        </mxCell>
        <mxCell id="_pU5s7kkQX8Qgu3Vk2nb-106" value="&lt;div&gt;gcs_to_postgres_dag_update&lt;br&gt;&lt;/div&gt;" style="rounded=0;whiteSpace=wrap;html=1;" vertex="1" parent="1">
          <mxGeometry x="134" y="1250" width="200" height="40" as="geometry" />
        </mxCell>
        <mxCell id="_pU5s7kkQX8Qgu3Vk2nb-108" value="&lt;div&gt;dbt_update&lt;br&gt;&lt;/div&gt;" style="rounded=0;whiteSpace=wrap;html=1;" vertex="1" parent="1">
          <mxGeometry x="162" y="1310" width="150" height="40" as="geometry" />
        </mxCell>
        <mxCell id="_pU5s7kkQX8Qgu3Vk2nb-112" value="" style="group" vertex="1" connectable="0" parent="1">
          <mxGeometry x="100" y="1010" width="268" height="160" as="geometry" />
        </mxCell>
        <mxCell id="_pU5s7kkQX8Qgu3Vk2nb-109" value="" style="rounded=1;whiteSpace=wrap;html=1;" vertex="1" parent="_pU5s7kkQX8Qgu3Vk2nb-112">
          <mxGeometry width="268" height="160" as="geometry" />
        </mxCell>
        <mxCell id="_pU5s7kkQX8Qgu3Vk2nb-82" value="&lt;div&gt;&lt;span style=&quot;background-color: initial;&quot;&gt;gcs_to_postgres_dag&lt;/span&gt;&lt;br&gt;&lt;/div&gt;" style="rounded=0;whiteSpace=wrap;html=1;" vertex="1" parent="_pU5s7kkQX8Qgu3Vk2nb-112">
          <mxGeometry x="58" y="30" width="150" height="40" as="geometry" />
        </mxCell>
        <mxCell id="_pU5s7kkQX8Qgu3Vk2nb-107" value="&lt;div&gt;dbt&lt;br&gt;&lt;/div&gt;" style="rounded=0;whiteSpace=wrap;html=1;" vertex="1" parent="_pU5s7kkQX8Qgu3Vk2nb-112">
          <mxGeometry x="58" y="89" width="150" height="40" as="geometry" />
        </mxCell>
        <mxCell id="_pU5s7kkQX8Qgu3Vk2nb-113" value="組合1" style="text;html=1;strokeColor=none;fillColor=none;align=center;verticalAlign=middle;whiteSpace=wrap;rounded=0;" vertex="1" parent="1">
          <mxGeometry x="207" y="970" width="60" height="30" as="geometry" />
        </mxCell>
        <mxCell id="_pU5s7kkQX8Qgu3Vk2nb-114" value="組合2" style="text;html=1;strokeColor=none;fillColor=none;align=center;verticalAlign=middle;whiteSpace=wrap;rounded=0;" vertex="1" parent="1">
          <mxGeometry x="204" y="1190" width="60" height="30" as="geometry" />
        </mxCell>
        <mxCell id="_pU5s7kkQX8Qgu3Vk2nb-115" value="&lt;h1&gt;組合一&lt;/h1&gt;&lt;p&gt;取用模擬資料(來源/DBT)，使用&lt;font color=&quot;#ff0b03&quot;&gt;主體table&lt;/font&gt;，在dbt執行時以&lt;font color=&quot;#12ff12&quot;&gt;覆蓋整體為主&lt;/font&gt;，無視原本的資料，較適合&lt;font color=&quot;#ffbc05&quot;&gt;整批刷新&lt;/font&gt;定其任務。&lt;/p&gt;" style="text;html=1;strokeColor=none;fillColor=none;spacing=5;spacingTop=-20;whiteSpace=wrap;overflow=hidden;rounded=0;" vertex="1" parent="1">
          <mxGeometry x="430" y="1000" width="190" height="120" as="geometry" />
        </mxCell>
        <mxCell id="_pU5s7kkQX8Qgu3Vk2nb-116" value="&lt;h1&gt;組合二&lt;/h1&gt;&lt;p&gt;取用模擬資料(來源/DBT_UPDATE)，使用&lt;font color=&quot;#ff0b03&quot;&gt;update_table&lt;/font&gt;，在dbt執行時以&lt;font color=&quot;#00ff00&quot;&gt;單一table為主體&lt;/font&gt;，以最新寫入時間&lt;font color=&quot;#ffaf0f&quot;&gt;更新&lt;/font&gt;系列tag表。&lt;/p&gt;" style="text;html=1;strokeColor=none;fillColor=none;spacing=5;spacingTop=-20;whiteSpace=wrap;overflow=hidden;rounded=0;" vertex="1" parent="1">
          <mxGeometry x="430" y="1210" width="210" height="130" as="geometry" />
        </mxCell>
      </root>
    </mxGraphModel>
  </diagram>
</mxfile>
